<svg xmlns="http://www.w3.org/2000/svg" viewBox="0 0 220 220" width="220" height="220" font-family="sans-serif">
  <!-- QR background -->
  <rect x="0" y="0" width="220" height="220" fill="white"/>

  <!-- Pseudo QR pattern (decorative) -->
  <g fill="#0a0a0a">
    <!-- Three locator squares -->
    <rect x="10"  y="10"  width="44" height="44"/>
    <rect x="16"  y="16"  width="32" height="32" fill="white"/>
    <rect x="22"  y="22"  width="20" height="20"/>

    <rect x="166" y="10"  width="44" height="44"/>
    <rect x="172" y="16"  width="32" height="32" fill="white"/>
    <rect x="178" y="22"  width="20" height="20"/>

    <rect x="10"  y="166" width="44" height="44"/>
    <rect x="16"  y="172" width="32" height="32" fill="white"/>
    <rect x="22"  y="178" width="20" height="20"/>

    <!-- Random-looking pseudo data dots -->
    <g>
      <rect x="64"  y="14"  width="6" height="6"/>
      <rect x="76"  y="14"  width="6" height="6"/>
      <rect x="88"  y="20"  width="6" height="6"/>
      <rect x="100" y="14"  width="6" height="6"/>
      <rect x="112" y="20"  width="6" height="6"/>
      <rect x="124" y="14"  width="6" height="6"/>
      <rect x="136" y="20"  width="6" height="6"/>
      <rect x="148" y="14"  width="6" height="6"/>

      <rect x="64"  y="32"  width="6" height="6"/>
      <rect x="82"  y="32"  width="6" height="6"/>
      <rect x="100" y="38"  width="6" height="6"/>
      <rect x="118" y="32"  width="6" height="6"/>
      <rect x="136" y="38"  width="6" height="6"/>
      <rect x="148" y="32"  width="6" height="6"/>

      <rect x="64"  y="58"  width="6" height="6"/>
      <rect x="82"  y="58"  width="6" height="6"/>
      <rect x="94"  y="64"  width="6" height="6"/>
      <rect x="112" y="58"  width="6" height="6"/>
      <rect x="130" y="64"  width="6" height="6"/>
      <rect x="148" y="58"  width="6" height="6"/>
      <rect x="166" y="64"  width="6" height="6"/>
      <rect x="184" y="58"  width="6" height="6"/>

      <rect x="14"  y="76"  width="6" height="6"/>
      <rect x="32"  y="82"  width="6" height="6"/>
      <rect x="46"  y="76"  width="6" height="6"/>
      <rect x="64"  y="82"  width="6" height="6"/>
      <rect x="76"  y="76"  width="6" height="6"/>
      <rect x="88"  y="82"  width="6" height="6"/>
      <rect x="100" y="76"  width="6" height="6"/>
      <rect x="118" y="82"  width="6" height="6"/>
      <rect x="136" y="76"  width="6" height="6"/>
      <rect x="154" y="82"  width="6" height="6"/>
      <rect x="172" y="76"  width="6" height="6"/>
      <rect x="190" y="82"  width="6" height="6"/>
      <rect x="202" y="76"  width="6" height="6"/>

      <rect x="14"  y="98"  width="6" height="6"/>
      <rect x="34"  y="98"  width="6" height="6"/>
      <rect x="50"  y="104" width="6" height="6"/>
      <rect x="68"  y="98"  width="6" height="6"/>
      <rect x="86"  y="104" width="6" height="6"/>
      <rect x="104" y="98"  width="6" height="6"/>
      <rect x="122" y="104" width="6" height="6"/>
      <rect x="140" y="98"  width="6" height="6"/>
      <rect x="158" y="104" width="6" height="6"/>
      <rect x="176" y="98"  width="6" height="6"/>
      <rect x="194" y="104" width="6" height="6"/>

      <rect x="14"  y="124" width="6" height="6"/>
      <rect x="32"  y="124" width="6" height="6"/>
      <rect x="50"  y="130" width="6" height="6"/>
      <rect x="68"  y="124" width="6" height="6"/>
      <rect x="86"  y="130" width="6" height="6"/>
      <rect x="100" y="124" width="6" height="6"/>
      <rect x="118" y="130" width="6" height="6"/>
      <rect x="138" y="124" width="6" height="6"/>
      <rect x="156" y="130" width="6" height="6"/>
      <rect x="174" y="124" width="6" height="6"/>
      <rect x="192" y="130" width="6" height="6"/>

      <rect x="14"  y="148" width="6" height="6"/>
      <rect x="32"  y="148" width="6" height="6"/>
      <rect x="50"  y="154" width="6" height="6"/>
      <rect x="68"  y="148" width="6" height="6"/>
      <rect x="84"  y="154" width="6" height="6"/>
      <rect x="100" y="148" width="6" height="6"/>
      <rect x="118" y="154" width="6" height="6"/>
      <rect x="138" y="148" width="6" height="6"/>
      <rect x="156" y="154" width="6" height="6"/>
      <rect x="172" y="148" width="6" height="6"/>
      <rect x="190" y="154" width="6" height="6"/>

      <rect x="64"  y="172" width="6" height="6"/>
      <rect x="82"  y="178" width="6" height="6"/>
      <rect x="100" y="172" width="6" height="6"/>
      <rect x="118" y="178" width="6" height="6"/>
      <rect x="136" y="172" width="6" height="6"/>

      <rect x="64"  y="194" width="6" height="6"/>
      <rect x="82"  y="194" width="6" height="6"/>
      <rect x="100" y="200" width="6" height="6"/>
      <rect x="118" y="194" width="6" height="6"/>
      <rect x="136" y="200" width="6" height="6"/>
      <rect x="156" y="194" width="6" height="6"/>
      <rect x="172" y="200" width="6" height="6"/>
      <rect x="188" y="194" width="6" height="6"/>
      <rect x="200" y="200" width="6" height="6"/>
    </g>
  </g>

  <!-- Center logo placeholder -->
  <rect x="98" y="98" width="24" height="24" fill="white" stroke="white" stroke-width="2"/>
  <g transform="translate(110,110)">
    <polygon points="-7,2 -2,-6 4,-2 8,4 0,7" fill="#0a4f7c"/>
    <polygon points="-2,-6 2,-2 4,-2 6,-4" fill="#3aa56e"/>
  </g>
</svg>
